<mxfile host="app.diagrams.net" modified="2021-01-21T00:46:38.387Z" agent="5.0 (Windows NT 10.0; Win64; x64) AppleWebKit/537.36 (KHTML, like Gecko) Chrome/88.0.4324.96 Safari/537.36" etag="51MEl8WJaxGOXmmAHmW-" version="14.2.6" type="github">
  <diagram id="6lGFnr-tRphFq525iMFx" name="Page-1">
    <mxGraphModel dx="938" dy="578" grid="1" gridSize="10" guides="1" tooltips="1" connect="1" arrows="1" fold="1" page="1" pageScale="1" pageWidth="827" pageHeight="1169" math="0" shadow="0">
      <root>
        <mxCell id="0" />
        <mxCell id="1" parent="0" />
        <mxCell id="ZepxJ5lsP3LT1o16sexq-1" value="" style="ellipse;html=1;shape=startState;fillColor=#000000;strokeColor=#ff0000;" vertex="1" parent="1">
          <mxGeometry x="399" y="200" width="30" height="30" as="geometry" />
        </mxCell>
        <mxCell id="ZepxJ5lsP3LT1o16sexq-2" value="" style="edgeStyle=orthogonalEdgeStyle;html=1;verticalAlign=bottom;endArrow=open;endSize=8;strokeColor=#ff0000;" edge="1" source="ZepxJ5lsP3LT1o16sexq-1" parent="1">
          <mxGeometry relative="1" as="geometry">
            <mxPoint x="414" y="290" as="targetPoint" />
          </mxGeometry>
        </mxCell>
        <mxCell id="ZepxJ5lsP3LT1o16sexq-5" style="edgeStyle=orthogonalEdgeStyle;rounded=0;orthogonalLoop=1;jettySize=auto;html=1;entryX=0.5;entryY=0;entryDx=0;entryDy=0;" edge="1" parent="1" source="ZepxJ5lsP3LT1o16sexq-3" target="ZepxJ5lsP3LT1o16sexq-4">
          <mxGeometry relative="1" as="geometry">
            <Array as="points">
              <mxPoint x="414" y="350" />
              <mxPoint x="414" y="350" />
            </Array>
          </mxGeometry>
        </mxCell>
        <mxCell id="ZepxJ5lsP3LT1o16sexq-3" value="Pedir datos al usuario: &lt;br&gt;&quot;Ingrese datos&lt;br&gt;&amp;nbsp;separados por comas ejem: 1.2, 3.4&quot;:&amp;nbsp;" style="html=1;" vertex="1" parent="1">
          <mxGeometry x="338.5" y="270" width="201.5" height="70" as="geometry" />
        </mxCell>
        <mxCell id="ZepxJ5lsP3LT1o16sexq-8" style="edgeStyle=orthogonalEdgeStyle;rounded=0;orthogonalLoop=1;jettySize=auto;html=1;entryX=0.5;entryY=0;entryDx=0;entryDy=0;" edge="1" parent="1" source="ZepxJ5lsP3LT1o16sexq-4" target="ZepxJ5lsP3LT1o16sexq-7">
          <mxGeometry relative="1" as="geometry" />
        </mxCell>
        <mxCell id="ZepxJ5lsP3LT1o16sexq-4" value="point_a = (x1, y2)&lt;br&gt;point_b = (x2, y2)&lt;br&gt;point_c = (x3, y3)" style="html=1;" vertex="1" parent="1">
          <mxGeometry x="359" y="380" width="110" height="60" as="geometry" />
        </mxCell>
        <mxCell id="ZepxJ5lsP3LT1o16sexq-13" style="edgeStyle=orthogonalEdgeStyle;rounded=0;orthogonalLoop=1;jettySize=auto;html=1;entryX=0.5;entryY=0;entryDx=0;entryDy=0;" edge="1" parent="1" source="ZepxJ5lsP3LT1o16sexq-7" target="ZepxJ5lsP3LT1o16sexq-12">
          <mxGeometry relative="1" as="geometry" />
        </mxCell>
        <mxCell id="ZepxJ5lsP3LT1o16sexq-7" value="vec_u = point_b - point a&lt;br&gt;vec_v = point_c - point a" style="html=1;" vertex="1" parent="1">
          <mxGeometry x="318.5" y="490" width="191" height="50" as="geometry" />
        </mxCell>
        <mxCell id="ZepxJ5lsP3LT1o16sexq-9" value="func calcular_vector(point_a, point_b):&lt;br&gt;retornar un vector&amp;nbsp;" style="html=1;" vertex="1" parent="1">
          <mxGeometry x="90" y="330" width="210" height="70" as="geometry" />
        </mxCell>
        <mxCell id="ZepxJ5lsP3LT1o16sexq-11" value="" style="endArrow=block;dashed=1;endFill=0;endSize=12;html=1;" edge="1" parent="1">
          <mxGeometry width="160" relative="1" as="geometry">
            <mxPoint x="310" y="480" as="sourcePoint" />
            <mxPoint x="260" y="410" as="targetPoint" />
          </mxGeometry>
        </mxCell>
        <mxCell id="ZepxJ5lsP3LT1o16sexq-21" style="edgeStyle=orthogonalEdgeStyle;rounded=0;orthogonalLoop=1;jettySize=auto;html=1;" edge="1" parent="1" source="ZepxJ5lsP3LT1o16sexq-12" target="ZepxJ5lsP3LT1o16sexq-22">
          <mxGeometry relative="1" as="geometry">
            <mxPoint x="414" y="680" as="targetPoint" />
          </mxGeometry>
        </mxCell>
        <mxCell id="ZepxJ5lsP3LT1o16sexq-12" value="Encontrar el angulo&lt;br&gt;alfa = angulo(a, b)" style="html=1;" vertex="1" parent="1">
          <mxGeometry x="359" y="590" width="110" height="50" as="geometry" />
        </mxCell>
        <mxCell id="ZepxJ5lsP3LT1o16sexq-14" value="Función angulo( vector, vector)" style="html=1;" vertex="1" parent="1">
          <mxGeometry x="90" y="460" width="170" height="50" as="geometry" />
        </mxCell>
        <mxCell id="ZepxJ5lsP3LT1o16sexq-15" value="Funcion restar_vectores" style="html=1;" vertex="1" parent="1">
          <mxGeometry x="90" y="540" width="130" height="50" as="geometry" />
        </mxCell>
        <mxCell id="ZepxJ5lsP3LT1o16sexq-16" value="función producto(vector, vector)" style="html=1;" vertex="1" parent="1">
          <mxGeometry x="90" y="620" width="170" height="80" as="geometry" />
        </mxCell>
        <mxCell id="ZepxJ5lsP3LT1o16sexq-19" value="" style="endArrow=open;endFill=1;endSize=12;html=1;" edge="1" parent="1">
          <mxGeometry width="160" relative="1" as="geometry">
            <mxPoint x="350" y="600" as="sourcePoint" />
            <mxPoint x="250" y="520" as="targetPoint" />
          </mxGeometry>
        </mxCell>
        <mxCell id="ZepxJ5lsP3LT1o16sexq-20" value="funcion modulo_vector(vector)" style="html=1;" vertex="1" parent="1">
          <mxGeometry x="90" y="710" width="180" height="50" as="geometry" />
        </mxCell>
        <mxCell id="ZepxJ5lsP3LT1o16sexq-23" style="edgeStyle=orthogonalEdgeStyle;rounded=0;orthogonalLoop=1;jettySize=auto;html=1;" edge="1" parent="1" source="ZepxJ5lsP3LT1o16sexq-22" target="ZepxJ5lsP3LT1o16sexq-24">
          <mxGeometry relative="1" as="geometry">
            <mxPoint x="414" y="800" as="targetPoint" />
          </mxGeometry>
        </mxCell>
        <mxCell id="ZepxJ5lsP3LT1o16sexq-22" value="mod_vec_a&amp;nbsp;&lt;br&gt;mod_vec_b" style="html=1;" vertex="1" parent="1">
          <mxGeometry x="359" y="690" width="110" height="50" as="geometry" />
        </mxCell>
        <mxCell id="ZepxJ5lsP3LT1o16sexq-27" style="edgeStyle=orthogonalEdgeStyle;rounded=0;orthogonalLoop=1;jettySize=auto;html=1;" edge="1" parent="1" source="ZepxJ5lsP3LT1o16sexq-24" target="ZepxJ5lsP3LT1o16sexq-26">
          <mxGeometry relative="1" as="geometry" />
        </mxCell>
        <mxCell id="ZepxJ5lsP3LT1o16sexq-24" value="Calcular el area:&lt;br&gt;area = 0.5 * mod_vec_a * mod_vec_b * sen ( a )&amp;nbsp;" style="html=1;" vertex="1" parent="1">
          <mxGeometry x="264.5" y="775" width="299" height="50" as="geometry" />
        </mxCell>
        <mxCell id="ZepxJ5lsP3LT1o16sexq-25" value="" style="line;strokeWidth=1;fillColor=none;align=left;verticalAlign=middle;spacingTop=-1;spacingLeft=3;spacingRight=3;rotatable=0;labelPosition=right;points=[];portConstraint=eastwest;" vertex="1" parent="1">
          <mxGeometry x="310" y="830" width="40" height="8" as="geometry" />
        </mxCell>
        <mxCell id="ZepxJ5lsP3LT1o16sexq-31" style="edgeStyle=orthogonalEdgeStyle;rounded=0;orthogonalLoop=1;jettySize=auto;html=1;entryX=0.5;entryY=0;entryDx=0;entryDy=0;" edge="1" parent="1" source="ZepxJ5lsP3LT1o16sexq-26" target="ZepxJ5lsP3LT1o16sexq-30">
          <mxGeometry relative="1" as="geometry" />
        </mxCell>
        <mxCell id="ZepxJ5lsP3LT1o16sexq-26" value="mostrar(area)" style="html=1;" vertex="1" parent="1">
          <mxGeometry x="359" y="880" width="110" height="50" as="geometry" />
        </mxCell>
        <mxCell id="ZepxJ5lsP3LT1o16sexq-30" value="" style="ellipse;html=1;shape=endState;fillColor=#000000;strokeColor=#ff0000;" vertex="1" parent="1">
          <mxGeometry x="399" y="980" width="30" height="30" as="geometry" />
        </mxCell>
      </root>
    </mxGraphModel>
  </diagram>
</mxfile>
